<svg width="228" height="30" viewBox="0 0 228 30" fill="none" xmlns="http://www.w3.org/2000/svg">
<path d="M13.8734 4.73815C12.465 4.73815 11.477 4.98753 10.9095 5.48628C10.363 5.96426 10.0897 6.74356 10.0897 7.82419V24.5012H3.65752V8.13591C3.65752 6.41105 4.01487 4.94597 4.72955 3.74065C5.44424 2.51455 6.49525 1.58977 7.88259 0.966333C9.29095 0.322111 11.0251 0 13.0851 0C14.01 0 14.8298 0.062344 15.5445 0.187032C16.2802 0.31172 17.0579 0.488362 17.8777 0.716958V5.39277C17.2471 5.16417 16.5955 4.99792 15.9228 4.89402C15.2712 4.79011 14.588 4.73815 13.8734 4.73815ZM0 12.8741V8.16708H17.4363V12.8741H0Z" fill="#111111"/>
<path d="M35.4162 24.5012L34.5964 18.0798L35.4478 15.6172L34.5964 13.1546L35.4162 6.70199H42.1007L40.9656 15.586L42.1007 24.5012H35.4162ZM36.9297 15.6172C36.6354 17.4875 36.0468 19.1293 35.164 20.5424C34.3022 21.9555 33.1986 23.0569 31.8533 23.8466C30.529 24.6155 29.0156 25 27.3129 25C25.5472 25 23.9917 24.6155 22.6464 23.8466C21.3222 23.0569 20.2817 21.9555 19.5249 20.5424C18.7682 19.1085 18.3898 17.4667 18.3898 15.6172C18.3898 13.7261 18.7682 12.074 19.5249 10.6608C20.2817 9.24771 21.3222 8.1463 22.6464 7.35661C23.9917 6.56692 25.5472 6.17207 27.3129 6.17207C29.0156 6.17207 30.529 6.56692 31.8533 7.35661C33.1986 8.12552 34.3127 9.21654 35.1955 10.6297C36.0784 12.022 36.6564 13.6845 36.9297 15.6172ZM24.9166 15.6172C24.9166 16.49 25.0953 17.2693 25.4526 17.9551C25.831 18.6409 26.346 19.1812 26.9976 19.5761C27.6493 19.9501 28.3955 20.1372 29.2363 20.1372C30.1191 20.1372 30.9494 19.9501 31.7272 19.5761C32.5049 19.1812 33.1881 18.6409 33.7766 17.9551C34.3652 17.2693 34.8066 16.49 35.1009 15.6172C34.8066 14.7236 34.3652 13.9339 33.7766 13.2481C33.1881 12.5623 32.5049 12.022 31.7272 11.6272C30.9494 11.2323 30.1191 11.0349 29.2363 11.0349C28.3955 11.0349 27.6493 11.2323 26.9976 11.6272C26.346 12.022 25.831 12.5623 25.4526 13.2481C25.0953 13.9339 24.9166 14.7236 24.9166 15.6172Z" fill="#111111"/>
<path d="M66.5143 16.9888C66.3461 18.5889 65.7576 19.9917 64.7486 21.197C63.7396 22.4023 62.4258 23.3375 60.8073 24.0025C59.2097 24.6675 57.4125 25 55.4156 25C53.2085 25 51.2641 24.6052 49.5825 23.8155C47.9009 23.0258 46.5871 21.9244 45.6412 20.5112C44.6953 19.0981 44.2223 17.4667 44.2223 15.6172C44.2223 13.7469 44.6953 12.1052 45.6412 10.692C46.5871 9.27888 47.9009 8.17747 49.5825 7.38778C51.2641 6.57731 53.2085 6.17207 55.4156 6.17207C57.4125 6.17207 59.2097 6.51496 60.8073 7.20075C62.4258 7.86575 63.7396 8.80091 64.7486 10.0062C65.7576 11.1908 66.3461 12.5935 66.5143 14.2145H60.1136C59.8824 13.1546 59.3464 12.3441 58.5056 11.783C57.6648 11.2012 56.6348 10.9102 55.4156 10.9102C54.4697 10.9102 53.6394 11.0973 52.9247 11.4713C52.231 11.8246 51.6845 12.3545 51.2851 13.0611C50.9067 13.7469 50.7176 14.5989 50.7176 15.6172C50.7176 16.6147 50.9067 17.4667 51.2851 18.1733C51.6845 18.8591 52.231 19.389 52.9247 19.7631C53.6394 20.1164 54.4697 20.293 55.4156 20.293C56.6348 20.293 57.6648 19.9917 58.5056 19.389C59.3674 18.7864 59.9034 17.9863 60.1136 16.9888H66.5143Z" fill="#111111"/>
<path d="M67.2365 11.409V8.63466L70.894 7.16957L73.6687 1.9015H77.3262V6.70199H84.8935V11.409H77.3262V16.6459C77.3262 17.9343 77.589 18.8383 78.1145 19.3579C78.64 19.8774 79.5964 20.1372 80.9837 20.1372C81.8666 20.1372 82.6443 20.0644 83.317 19.919C84.0107 19.7527 84.6413 19.5449 85.2088 19.2955V24.096C84.5782 24.3246 83.7479 24.5324 82.7179 24.7195C81.6879 24.9065 80.6264 25 79.5334 25C77.5364 25 75.8969 24.6987 74.6146 24.096C73.3534 23.4934 72.418 22.6309 71.8084 21.5087C71.1988 20.3658 70.894 19.0357 70.894 17.5187V11.409H67.2365Z" fill="#111111"/>
<path d="M95.5678 25C93.8862 25 92.4463 24.6571 91.2481 23.9713C90.071 23.2855 89.1671 22.3192 88.5365 21.0723C87.9059 19.8047 87.5906 18.3292 87.5906 16.6459V6.70199H94.0228V15.7419C94.0228 17.0511 94.3486 18.059 95.0002 18.7656C95.6519 19.4722 96.5872 19.8254 97.8064 19.8254C98.7103 19.8254 99.467 19.6488 100.077 19.2955C100.686 18.9214 101.159 18.3915 101.495 17.7057C101.832 17.0199 102 16.1991 102 15.2431L103.986 16.2718C103.755 18.1629 103.23 19.7631 102.41 21.0723C101.611 22.3608 100.623 23.3375 99.446 24.0025C98.2689 24.6675 96.9761 25 95.5678 25ZM103.167 24.5012L102 17.3628V6.70199H108.432V18.3603L109.599 24.5012H103.167Z" fill="#111111"/>
<path d="M111.47 6.70199H117.934L119.1 13.8092V24.5012H112.668V12.8429L111.47 6.70199ZM125.312 6.17207C126.972 6.17207 128.381 6.51496 129.537 7.20075C130.693 7.88653 131.576 8.85287 132.185 10.0998C132.795 11.3466 133.1 12.8221 133.1 14.5262V24.5012H126.668V15.4613C126.668 14.1313 126.363 13.113 125.753 12.4065C125.144 11.6999 124.261 11.3466 123.105 11.3466C122.285 11.3466 121.57 11.5337 120.961 11.9077C120.372 12.2818 119.91 12.8117 119.573 13.4975C119.258 14.1833 119.1 14.9938 119.1 15.9289L117.114 14.9002C117.366 13.0091 117.881 11.4194 118.659 10.1309C119.437 8.8217 120.393 7.83458 121.528 7.16957C122.684 6.50457 123.945 6.17207 125.312 6.17207ZM139.28 6.17207C140.94 6.17207 142.349 6.51496 143.505 7.20075C144.682 7.88653 145.575 8.85287 146.185 10.0998C146.794 11.3466 147.099 12.8221 147.099 14.5262V24.5012H140.667V15.4613C140.667 14.1313 140.362 13.113 139.753 12.4065C139.143 11.6999 138.26 11.3466 137.104 11.3466C136.284 11.3466 135.57 11.5337 134.96 11.9077C134.371 12.2818 133.909 12.8117 133.573 13.4975C133.257 14.1833 133.1 14.9938 133.1 15.9289L131.113 14.9002C131.366 13.0091 131.87 11.4194 132.627 10.1309C133.405 8.8217 134.371 7.83458 135.528 7.16957C136.684 6.50457 137.934 6.17207 139.28 6.17207Z" fill="#111111"/>
<path d="M153.374 24.813C152.701 24.813 152.081 24.6571 151.514 24.3454C150.967 24.0337 150.536 23.6076 150.221 23.0673C149.906 22.5062 149.748 21.8932 149.748 21.2282C149.748 20.5632 149.906 19.9605 150.221 19.4202C150.536 18.8799 150.967 18.4539 151.514 18.1421C152.081 17.8096 152.701 17.6434 153.374 17.6434C154.068 17.6434 154.688 17.8096 155.234 18.1421C155.781 18.4539 156.212 18.8799 156.527 19.4202C156.842 19.9605 157 20.5632 157 21.2282C157 21.8932 156.842 22.5062 156.527 23.0673C156.212 23.6076 155.781 24.0337 155.234 24.3454C154.688 24.6571 154.068 24.813 153.374 24.813Z" fill="#CB4E00"/>
<path d="M159 7.50988H165.15L166.26 14.3499V24.6399H160.14V13.4199L159 7.50988ZM172.56 6.99988C174.2 6.99988 175.6 7.32988 176.76 7.98988C177.92 8.64988 178.8 9.57988 179.4 10.7799C180.02 11.9799 180.33 13.3999 180.33 15.0399V24.6399H174.21V15.9399C174.21 14.6599 173.88 13.6799 173.22 12.9999C172.58 12.3199 171.65 11.9799 170.43 11.9799C169.59 11.9799 168.85 12.1599 168.21 12.5199C167.59 12.8799 167.11 13.3899 166.77 14.0499C166.43 14.7099 166.26 15.4899 166.26 16.3899L164.37 15.3999C164.61 13.5799 165.12 12.0499 165.9 10.8099C166.68 9.54988 167.64 8.59988 168.78 7.95988C169.92 7.31988 171.18 6.99988 172.56 6.99988Z" fill="black"/>
<path d="M183.482 7.50988H189.632V12.4299L189.362 13.1499V17.9499L189.632 19.3599V29.5899H183.482V7.50988ZM187.682 16.0899C187.942 14.2299 188.482 12.6299 189.302 11.2899C190.142 9.92988 191.202 8.87988 192.482 8.13988C193.762 7.37988 195.212 6.99988 196.832 6.99988C198.512 6.99988 199.982 7.37988 201.242 8.13988C202.522 8.89988 203.512 9.95988 204.212 11.3199C204.932 12.6799 205.292 14.2699 205.292 16.0899C205.292 17.8699 204.932 19.4499 204.212 20.8299C203.512 22.1899 202.522 23.2499 201.242 24.0099C199.982 24.7499 198.512 25.1199 196.832 25.1199C195.212 25.1199 193.762 24.7499 192.482 24.0099C191.202 23.2499 190.152 22.1899 189.332 20.8299C188.512 19.4699 187.962 17.8899 187.682 16.0899ZM199.112 16.0899C199.112 15.2299 198.932 14.4699 198.572 13.8099C198.232 13.1499 197.742 12.6299 197.102 12.2499C196.482 11.8699 195.772 11.6799 194.972 11.6799C194.152 11.6799 193.372 11.8699 192.632 12.2499C191.892 12.6299 191.242 13.1499 190.682 13.8099C190.122 14.4699 189.692 15.2299 189.392 16.0899C189.692 16.9299 190.122 17.6799 190.682 18.3399C191.242 18.9999 191.892 19.5199 192.632 19.8999C193.372 20.2599 194.152 20.4399 194.972 20.4399C195.772 20.4399 196.482 20.2599 197.102 19.8999C197.742 19.5199 198.232 18.9999 198.572 18.3399C198.932 17.6799 199.112 16.9299 199.112 16.0899Z" fill="black"/>
<path d="M227.805 19.0599C227.805 20.3799 227.405 21.4899 226.605 22.3899C225.805 23.2899 224.665 23.9699 223.185 24.4299C221.705 24.8899 219.925 25.1199 217.845 25.1199C215.705 25.1199 213.825 24.8599 212.205 24.3399C210.605 23.8199 209.355 23.0899 208.455 22.1499C207.555 21.2099 207.075 20.1199 207.015 18.8799H213.225C213.365 19.3399 213.635 19.7399 214.035 20.0799C214.455 20.3999 215.005 20.6499 215.685 20.8299C216.365 20.9899 217.175 21.0699 218.115 21.0699C219.335 21.0699 220.255 20.9499 220.875 20.7099C221.515 20.4699 221.835 20.1099 221.835 19.6299C221.835 19.2499 221.595 18.9699 221.115 18.7899C220.635 18.5899 219.815 18.4399 218.655 18.3399L215.625 18.0999C213.605 17.9599 211.995 17.6599 210.795 17.1999C209.615 16.7199 208.765 16.1099 208.245 15.3699C207.725 14.6099 207.465 13.7499 207.465 12.7899C207.465 11.4899 207.865 10.4199 208.665 9.57988C209.485 8.71988 210.615 8.07988 212.055 7.65988C213.515 7.21988 215.215 6.99988 217.155 6.99988C219.075 6.99988 220.785 7.24988 222.285 7.74988C223.785 8.24988 224.985 8.94988 225.885 9.84988C226.785 10.7299 227.305 11.7699 227.445 12.9699H221.235C221.135 12.5899 220.915 12.2499 220.575 11.9499C220.235 11.6299 219.765 11.3699 219.165 11.1699C218.565 10.9699 217.795 10.8699 216.855 10.8699C215.755 10.8699 214.915 10.9899 214.335 11.2299C213.775 11.4699 213.495 11.8099 213.495 12.2499C213.495 12.5899 213.665 12.8599 214.005 13.0599C214.365 13.2599 215.025 13.3999 215.985 13.4799L219.975 13.7799C221.955 13.8999 223.515 14.1899 224.655 14.6499C225.795 15.0899 226.605 15.6799 227.085 16.4199C227.565 17.1599 227.805 18.0399 227.805 19.0599Z" fill="black"/>
</svg>
